<svg viewBox="0 0 144 144" fill="currentColor" xmlns="http://www.w3.org/2000/svg">
  <path d="M113.99,6.94H30.01c-12.6,0-22.81,10.21-22.81,22.81v84.5c0,12.6,10.21,22.81,22.81,22.81h83.98c12.6,0,22.81-10.21,22.81-22.81V29.75c0-12.6-10.21-22.81-22.81-22.81ZM100.53,94.3c-.16,2.33-1.02,4.49-2.16,6.55-.72,1.3-1.66,2.48-2.75,3.56-.26.25-.49.53-.75.77-1.54,1.39-3.29,2.53-5.21,3.44-.57.27-1.2.42-1.8.64-.28.1-.55.22-.82.33,0,.03-.02.07-.03.1-.91.2-1.8.48-2.73.6-1.28.16-2.57.29-3.86.29-7.36.03-14.73,0-22.09.01-5.2,0-10.4.01-15.6.01-.33,0-.65-.03-1.01-.05-.14-.64-.12-1.22-.02-1.79.33-1.81.69-3.61,1.53-5.3.95-1.92,2.1-3.74,3.76-5.24.8-.73,1.6-1.47,2.49-2.1,1.12-.79,2.33-1.48,3.62-2.05,1.72-.76,3.55-1.22,5.41-1.53.91-.15,1.86-.18,2.8-.18,7.68-.01,15.35,0,23.03,0,5.11,0,10.22,0,15.33,0,.26,0,.52.03.83.05.13.66.07,1.28.03,1.9ZM115.27,65.85c-.23,1.55-.54,3.07-1.06,4.52-.57,1.57-1.28,3.04-2.19,4.37-.88,1.3-1.88,2.45-3.01,3.42-1.06.91-2.23,1.59-3.47,2.1-.36.14-.69.36-1.05.49-1.12.42-2.26.71-3.43.71-9.26.01-18.53,0-27.79.01-14.05,0-28.1,0-42.16,0-.33,0-.66,0-.92,0-.26-.31-.22-.61-.19-.88.13-1.14.22-2.28.41-3.4.26-1.48.74-2.88,1.31-4.23.93-2.22,2.23-4.08,3.8-5.69,1.51-1.54,3.21-2.64,5.09-3.35.89-.34,1.8-.57,2.74-.59,1.25-.03,2.49-.11,3.74-.11,21.52,0,43.04,0,64.56,0,.81,0,1.63-.09,2.44-.09.41,0,.82.1,1.26.17.09.92.04,1.74-.09,2.55ZM115.31,36.56c-.22,1.55-.51,3.08-1.03,4.53-.25.7-.53,1.39-.83,2.05-.75,1.65-1.7,3.13-2.85,4.39-1.55,1.71-3.31,3.02-5.34,3.75-.47.17-.91.44-1.39.6-.78.26-1.57.37-2.36.43-1.11.08-2.22.11-3.34.11-22.33.01-44.66.02-66.99.03-.38,0-.77.05-1.12-.25-.02-.14-.07-.27-.06-.41.07-.88.11-1.77.25-2.63.14-.91.33-1.81.57-2.68.97-3.51,2.67-6.41,5.09-8.68,1.36-1.28,2.88-2.23,4.52-2.89.83-.34,1.68-.55,2.57-.63,1.05-.09,2.09-.08,3.13-.09,1.01-.01,2.02-.07,3.03-.06,2.44,0,4.89.06,7.33.06,15.87.01,31.75.01,47.62.02,2.71,0,5.42,0,8.13,0,.6,0,1.19-.08,1.79-.1.23,0,.46.02.69.05.2.02.39.07.69.13-.03.76,0,1.53-.11,2.27Z"/>
</svg>
